<svg width="93" height="88" viewBox="0 0 93 88" fill="none" xmlns="http://www.w3.org/2000/svg">
<path d="M91.1836 38.6937C90.1806 38.6937 89.3672 39.4632 89.3672 40.4125V50.7031H83.1914V36.0915C83.1914 35.6357 83 35.1985 82.6594 34.8762L77.0311 29.5503C76.6903 29.228 76.2284 29.0469 75.7467 29.0469H59.2148V23.8906H69.2051C72.6105 23.8906 75.3809 21.2692 75.3809 18.0469C75.3809 14.8246 72.6105 12.2031 69.2051 12.2031H59.0332C58.0302 12.2031 57.2168 12.9726 57.2168 13.9219C57.2168 14.8711 58.0302 15.6406 59.0332 15.6406H69.2051C70.6073 15.6406 71.748 16.72 71.748 18.0469C71.748 19.3737 70.6073 20.4531 69.2051 20.4531H57.3984H42.8672H31.0605C29.6583 20.4531 28.5176 19.3737 28.5176 18.0469C28.5176 16.72 29.6583 15.6406 31.0605 15.6406H42.0498C43.0528 15.6406 43.8662 14.8711 43.8662 13.9219C43.8662 12.9726 43.0528 12.2031 42.0498 12.2031H31.0605C27.6551 12.2031 24.8848 14.8246 24.8848 18.0469C24.8848 21.2692 27.6551 23.8906 31.0605 23.8906H41.0508V29.0469H32.8165C32.3348 29.0469 31.8728 29.228 31.5321 29.5503L26.1911 34.6043H18.8906C17.8876 34.6043 17.0742 35.3738 17.0742 36.323V43.8281H13.4414C12.4384 43.8281 11.625 44.5976 11.625 45.5469V50.7031H9.44531V38.4197C9.44531 35.9557 7.32684 33.951 4.72266 33.951C2.11847 33.951 0 35.9557 0 38.4197V66.6291C0 69.0931 2.11847 71.0978 4.72266 71.0978C7.32684 71.0978 9.44531 69.0931 9.44531 66.6291V54.1406H11.625V59.2969C11.625 60.2461 12.4384 61.0156 13.4414 61.0156H17.0742V64.7606C17.0742 65.2164 17.2657 65.6537 17.6062 65.9759L27.4533 75.2935C27.7941 75.6157 28.256 75.7969 28.7377 75.7969H64.3916C64.8733 75.7969 65.3352 75.6157 65.676 75.2935L69.0492 72.1016H81.375C82.378 72.1016 83.1914 71.3321 83.1914 70.3828V54.1406H89.3672V64.475C89.3672 65.4242 90.1806 66.1937 91.1836 66.1937C92.1866 66.1937 93 65.4242 93 64.475V40.4125C93 39.4632 92.1866 38.6937 91.1836 38.6937ZM5.8125 52.3787C5.81214 52.3932 5.81214 52.4506 5.8125 52.4652V66.6291C5.8125 67.1976 5.32371 67.6603 4.72266 67.6603C4.12161 67.6603 3.63281 67.1978 3.63281 66.6291V38.4197C3.63281 37.851 4.12161 37.3885 4.72266 37.3885C5.32371 37.3885 5.8125 37.851 5.8125 38.4197V52.3787ZM17.0742 57.5781H15.2578V47.2656H17.0742V57.5781ZM44.6836 23.8906H55.582V29.0469H44.6836V23.8906ZM79.5586 68.6641H68.2969C67.8152 68.6641 67.3532 68.8452 67.0125 69.1675L63.6391 72.3594H29.4901L20.707 64.0485V38.0416H26.9433C27.425 38.0416 27.8869 37.8605 28.2277 37.5382L33.569 32.4844H74.9943L79.5586 36.8034V68.6641Z" fill="#F7DE0C"/>
<path d="M52.1923 64.7969H35.4101L27.7298 57.5295C27.0203 56.8583 25.8706 56.8583 25.1609 57.5295C24.4516 58.2007 24.4516 59.289 25.1609 59.9602L33.3732 67.7308C33.714 68.0531 34.1759 68.2342 34.6576 68.2342H52.1921C53.1951 68.2342 54.0085 67.4647 54.0085 66.5155C54.0085 65.5662 53.1953 64.7969 52.1923 64.7969Z" fill="#F7DE0C"/>
</svg>
